<svg width="25" height="24" viewBox="0 0 25 24" fill="none" xmlns="http://www.w3.org/2000/svg">
<g id="icon.facebook">
<path id="icon.facebook_2" d="M2.70866 0H21.3753C22.0826 0 22.7608 0.280951 23.2609 0.781048C23.761 1.28115 24.042 1.95942 24.042 2.66667V21.3333C24.042 22.0406 23.761 22.7189 23.2609 23.219C22.7608 23.719 22.0826 24 21.3753 24H2.70866C2.00141 24 1.32314 23.719 0.823041 23.219C0.322944 22.7189 0.0419922 22.0406 0.0419922 21.3333V2.66667C0.0419922 1.95942 0.322944 1.28115 0.823041 0.781048C1.32314 0.280951 2.00141 0 2.70866 0ZM20.042 2.66667H16.7087C15.471 2.66667 14.284 3.15833 13.4088 4.0335C12.5337 4.90867 12.042 6.09566 12.042 7.33333V10.6667H9.37533V14.6667H12.042V24H16.042V14.6667H20.042V10.6667H16.042V8C16.042 7.64638 16.1825 7.30724 16.4325 7.05719C16.6826 6.80714 17.0217 6.66667 17.3753 6.66667H20.042V2.66667Z" fill="#425497"/>
</g>
</svg>
