<svg width="25" height="24" viewBox="0 0 25 24" fill="none" xmlns="http://www.w3.org/2000/svg">
<g id="icon/whatsapp">
<path id="icon/whatsap" fill-rule="evenodd" clip-rule="evenodd" d="M12.0922 23.7938H12.0873C10.0873 23.7931 8.12217 23.2937 6.37677 22.3462L0.0419922 24L1.73729 17.8374C0.691546 16.0338 0.141283 13.9879 0.14218 11.8919C0.144801 5.33474 5.50549 0 12.0921 0C15.2888 0.00137307 18.2892 1.23989 20.5453 3.48784C22.8014 5.73568 24.0433 8.72361 24.042 11.9013C24.0393 18.4569 18.6808 23.7911 12.0922 23.7938ZM6.67028 20.1932L7.03296 20.4075C8.55791 21.3081 10.306 21.7846 12.0882 21.7853H12.0922C17.5666 21.7853 22.0221 17.3509 22.0243 11.9006C22.0254 9.25934 20.9932 6.7759 19.118 4.90749C17.2428 3.03907 14.749 2.00961 12.0961 2.0087C6.61757 2.0087 2.16195 6.44259 2.15978 11.8926C2.15901 13.7603 2.68411 15.5793 3.67835 17.153L3.9145 17.527L2.91113 21.1746L6.67028 20.1932ZM18.1125 14.7293C18.0379 14.6053 17.8388 14.531 17.5402 14.3822C17.2417 14.2334 15.7737 13.5146 15.4999 13.4154C15.2263 13.3163 15.0272 13.2667 14.8281 13.5641C14.6291 13.8615 14.0569 14.531 13.8827 14.7293C13.7085 14.9275 13.5343 14.9524 13.2359 14.8036C12.9373 14.6549 11.9752 14.3412 10.8347 13.3287C9.94705 12.5408 9.34781 11.5677 9.17364 11.2702C8.99946 10.9727 9.15507 10.8119 9.30455 10.6638C9.43888 10.5306 9.60315 10.3166 9.75244 10.1431C9.90172 9.96968 9.95148 9.84564 10.051 9.64746C10.1505 9.44905 10.1008 9.27559 10.0261 9.12684C9.95148 8.97809 9.35434 7.51542 9.10553 6.92042C8.86314 6.34098 8.61699 6.41948 8.43373 6.41032C8.25976 6.40163 8.06049 6.39979 7.86146 6.39979C7.66242 6.39979 7.33891 6.47417 7.06523 6.77167C6.79155 7.06917 6.0202 7.78809 6.0202 9.25064C6.0202 10.7133 7.0901 12.1263 7.23941 12.3246C7.38869 12.523 9.34484 15.5244 12.3401 16.8116C13.0525 17.1178 13.6086 17.3006 14.0423 17.4375C14.7575 17.6637 15.4085 17.6318 15.9229 17.5553C16.4966 17.47 17.6895 16.8365 17.9384 16.1424C18.1871 15.4481 18.1871 14.8532 18.1125 14.7293Z" fill="#25D366"/>
</g>
</svg>
