<svg width="56" height="56" viewBox="0 0 56 56" fill="none" xmlns="http://www.w3.org/2000/svg">
<path d="M44.0386 5.11646C42.729 6.64136 42.1191 10.0733 43.447 13.5523C44.7749 17.0314 46.8103 16.2758 48.079 19.8235C49.7537 24.5048 48.9742 30.7932 48.9742 30.7932C48.9742 30.7932 50.9875 36.6234 52.3904 30.4305C55.4957 18.7983 44.0386 7.98093 44.0386 5.11646Z" fill="url(#paint0_radial_815_2684)"/>
<path d="M28.0583 53.4099C41.4696 53.4099 52.3341 42.4866 52.3341 29.0177C52.3341 15.5488 41.4696 4.62561 28.0713 4.62561C14.673 4.62561 3.80864 15.5488 3.80864 29.0177C3.78266 42.4997 14.6599 53.4099 28.0583 53.4099Z" fill="url(#paint1_radial_815_2684)"/>
<path d="M46.2481 44.0582C45.7234 44.4284 45.1729 44.7607 44.6008 45.0526C45.3586 43.9422 46.0577 42.7929 46.6953 41.6094C47.2127 41.0368 47.6866 40.4802 48.0728 39.8784C48.2608 39.5827 48.4727 39.2178 48.6971 38.7945C50.06 36.3391 51.5627 32.3653 51.6053 28.2836V28.2737C51.6063 28.1733 51.6069 28.0728 51.6061 27.9721C51.6132 26.9476 51.5084 25.9253 51.2937 24.9234C51.3047 25.0017 51.3143 25.0799 51.3241 25.1581C51.312 25.0979 51.3019 25.0371 51.2889 24.9769C51.3089 25.0881 51.325 25.1956 51.3423 25.3041C51.6209 27.6675 51.4225 29.9728 50.43 31.6724C50.4144 31.6972 50.3983 31.7205 50.3825 31.7448C50.8971 29.1617 51.0692 26.3095 50.4967 23.4541C50.4967 23.4541 50.2677 22.066 48.562 17.8519C47.5803 15.4263 45.8368 13.4377 44.2964 11.989C42.9462 10.3185 41.7199 9.19749 41.0439 8.48573C39.6318 6.99883 39.04 5.8843 38.7969 5.15707C38.5862 5.05141 35.8911 2.43325 35.677 2.3335C34.5006 4.15743 30.801 9.8626 32.5609 15.193C33.3584 17.6087 35.3755 20.1158 37.4864 21.5224C37.5791 21.6282 38.7425 22.8918 39.2958 25.7419C39.8671 28.6864 39.5667 30.9839 38.3909 34.3816C37.0081 37.3623 33.4654 40.309 30.1482 40.6105C23.0565 41.2547 20.4604 37.0499 20.4604 37.0499C22.9944 38.063 25.7961 37.8511 27.5 36.8007C29.2171 35.7384 30.2559 34.9508 31.0989 35.2614C31.9302 35.5705 32.5919 34.6732 31.9981 33.7429C31.5396 33.0366 30.8834 32.4808 30.1113 32.1446C29.3393 31.8084 28.4854 31.7067 27.6559 31.8522C25.9369 32.1316 24.3623 33.4933 22.11 32.1745C21.9642 32.0899 21.8231 31.9975 21.6873 31.8977C21.5388 31.8 22.17 32.0463 22.0227 31.9353C21.5844 31.6972 20.8086 31.1783 20.6074 30.9937C20.5738 30.963 20.9475 31.1129 20.9139 31.0821C18.8079 29.3479 19.071 28.1763 19.1371 27.4416C19.1901 26.8537 19.5727 26.1005 20.2173 25.7949C20.5286 25.9648 20.7226 26.0946 20.7226 26.0946C20.7226 26.0946 20.5898 25.8233 20.518 25.6802C20.5432 25.6693 20.5672 25.6722 20.5923 25.6615C20.8473 25.7846 21.4113 26.1045 21.7083 26.2996C22.095 26.5724 22.2183 26.8156 22.2183 26.8156C22.2183 26.8156 22.3201 26.7596 22.2448 26.5217C22.2175 26.4241 22.1001 26.1141 21.717 25.8012L21.7409 25.8039C21.9702 25.9345 22.1874 26.0854 22.3899 26.2546C22.4979 25.8619 22.6922 25.4518 22.6495 24.7183C22.6234 24.2025 22.6354 24.069 22.5445 23.8698C22.4631 23.6988 22.5901 23.632 22.7314 23.8097C22.7072 23.6705 22.6667 23.5346 22.6107 23.405L22.6119 23.3916C22.7882 22.7772 26.3442 21.1789 26.603 20.9921C27.0283 20.6912 27.3849 20.3035 27.6493 19.8546C27.8471 19.5394 27.9959 19.0973 28.0321 18.4266C28.0515 17.9429 27.8266 17.6208 24.231 17.2444C23.2476 17.1475 22.6707 16.435 22.3428 15.7775C22.283 15.6358 22.222 15.5075 22.161 15.3793C22.1027 15.2293 22.056 15.0752 22.0211 14.9182C22.6089 13.2298 23.5966 11.8023 25.049 10.7237C25.1281 10.6516 24.7328 10.7421 24.8119 10.6701C24.9041 10.5859 25.5067 10.3432 25.6205 10.2885C25.7595 10.2229 25.0254 9.91116 24.3774 9.98707C23.7173 10.0614 23.5772 10.1402 23.2249 10.2895C23.3711 10.144 23.836 9.95327 23.727 9.95453C23.0154 10.0636 22.1312 10.4772 21.3754 10.9457C21.3739 10.8641 21.3895 10.7831 21.4211 10.7079C21.0688 10.8573 20.2037 11.4619 19.9519 11.9735C19.9627 11.8754 19.9676 11.7768 19.9664 11.6782C19.6981 11.902 19.456 12.1555 19.2448 12.4338L19.2316 12.4458C17.1886 11.6228 15.3908 11.5695 13.8694 11.9385C13.5365 11.6043 13.374 11.8486 12.6166 10.1848C12.5652 10.0846 12.6561 10.2837 12.6166 10.1848C12.4921 9.8621 12.6926 10.6153 12.6166 10.1848C11.3433 11.1895 9.6679 12.3281 8.86366 13.1319C8.85371 13.1639 9.80188 12.8639 8.86366 13.1319C8.5351 13.2257 8.55741 13.4207 8.50748 15.1827C8.49545 15.3163 8.50612 15.4659 8.49529 15.5861C7.85282 16.4047 7.41527 17.0979 7.24978 17.457C6.41891 18.8888 5.50383 21.1207 4.6168 24.6512C5.00805 23.6943 5.47976 22.7722 6.02686 21.8949C5.28923 23.7689 4.57616 26.7117 4.43359 31.2435C4.61203 30.3083 4.84083 29.3835 5.11899 28.473C4.94485 32.2328 5.59322 35.9852 7.01884 39.4685C7.52902 40.7166 8.3729 42.6106 9.80948 44.6857C14.323 49.4347 20.6893 52.3912 27.7389 52.3912C35.0983 52.3913 41.7069 49.1713 46.2481 44.0582Z" fill="url(#paint2_linear_815_2684)"/>
<path d="M40.8028 47.5074C49.7097 46.476 53.6526 37.2973 48.5892 37.1168C44.0156 36.9706 36.5838 47.9942 40.8028 47.5074Z" fill="url(#paint3_radial_815_2684)"/>
<path d="M49.2301 35.2419C55.3582 31.6755 53.7604 23.9719 53.7604 23.9719C53.7604 23.9719 51.3954 26.7193 49.7887 31.0988C48.2016 35.4355 45.5458 37.396 49.2301 35.2419Z" fill="url(#paint4_radial_815_2684)"/>
<path d="M29.7756 52.0658C38.3193 54.7921 45.6624 48.0616 41.136 45.814C37.0207 43.7869 25.7206 50.7767 29.7756 52.0658Z" fill="url(#paint5_radial_815_2684)"/>
<path d="M49.8667 38.5128C50.0746 38.2195 50.3556 37.2804 50.6039 36.8606C52.1123 34.4258 52.123 32.4844 52.123 32.4399C53.034 27.8889 52.9514 26.0305 52.391 22.5938C51.9397 19.8266 49.9671 15.8622 48.2582 13.9532C46.4973 11.9864 47.7379 12.6272 46.0329 11.1905C44.5384 9.53384 43.0894 7.89332 42.3003 7.23357C36.5977 2.46608 36.7265 1.45343 36.8363 1.28078C36.8178 1.30107 36.7906 1.3312 36.7559 1.37063C36.6883 1.10141 36.6406 0.875 36.6406 0.875C36.6406 0.875 33.5234 3.99219 32.8672 9.1875C32.4388 12.5793 33.7084 16.1151 35.5469 18.375C36.5042 19.5462 37.5861 20.6097 38.7734 21.5469V21.5455C40.1625 23.5403 40.927 26.0019 40.927 28.6499C40.927 35.2804 35.549 40.6555 28.9148 40.6555C28.0107 40.6559 27.1093 40.5547 26.2278 40.3536C23.0977 39.7571 21.2902 38.1781 20.3887 37.1062C19.8721 36.4918 19.6524 36.044 19.6524 36.044C22.4569 37.0487 25.5579 36.8385 27.4436 35.7969C29.3439 34.7434 30.4938 33.9624 31.4269 34.2703C32.3467 34.5769 33.079 33.687 32.4222 32.7644C31.7785 31.8432 30.1034 30.5239 27.6164 30.8894C25.7138 31.1665 23.9711 32.5169 21.4782 31.2091C21.3177 31.1256 21.1616 31.034 21.0104 30.9345C20.8461 30.8377 21.5446 31.0819 21.3816 30.9718C20.8965 30.7357 20.0378 30.2211 19.8152 30.0381C19.7781 30.0076 20.1916 30.1563 20.1543 30.1256C17.8234 28.4057 18.1144 27.2439 18.1877 26.5152C18.2464 25.9323 18.6698 25.1852 19.3832 24.8823C19.7277 25.0508 19.9424 25.1794 19.9424 25.1794C19.9424 25.1794 19.7954 24.9103 19.7159 24.7685C19.7438 24.7579 19.7703 24.7606 19.798 24.75C20.0803 24.872 20.7045 25.1891 21.0331 25.3827C21.4612 25.6533 21.5976 25.8945 21.5976 25.8945C21.5976 25.8945 21.7103 25.8389 21.6269 25.603C21.5965 25.5063 21.4668 25.1988 21.0428 24.8885L21.0693 24.8912C21.321 25.0195 21.5613 25.169 21.7876 25.3381C21.9071 24.9487 22.1221 24.5421 22.0748 23.8146C22.046 23.3032 22.0593 23.1707 21.9587 22.9732C21.8686 22.8036 22.0092 22.7374 22.1655 22.9137C22.1385 22.7746 22.0935 22.6396 22.0318 22.5121L22.0332 22.4989C22.2284 21.8895 26.164 20.3045 26.4505 20.1193C26.9121 19.8295 27.3068 19.4449 27.6085 18.9911C27.8272 18.6785 27.9921 18.24 28.0322 17.5749C28.0457 17.2752 27.9534 17.0381 26.9111 16.8112C26.2855 16.675 25.3177 16.5425 23.8249 16.4025C22.7367 16.3064 22.0981 15.5999 21.7352 14.9478C21.669 14.8073 21.6015 14.6798 21.534 14.5528C21.4698 14.405 21.418 14.2521 21.3791 14.0956C22.0304 12.3908 23.2032 10.9351 24.7303 9.93595C24.8178 9.86442 24.3803 9.95427 24.4678 9.8828C24.57 9.7994 25.2369 9.55866 25.3629 9.50441C25.5168 9.43956 24.7043 9.13035 23.987 9.20549C23.2566 9.27927 23.1014 9.35731 22.7116 9.50551C22.8734 9.36119 23.3878 9.17192 23.2672 9.17328C22.4797 9.28145 21.5008 9.69166 20.6641 10.1562C20.6626 10.0747 20.6799 9.99403 20.7146 9.92037C20.3248 10.0685 19.3673 10.6682 19.0886 11.1754C19.1005 11.0783 19.1059 10.9805 19.1046 10.8826C18.8111 11.1014 18.5432 11.3528 18.3062 11.6319L18.2916 11.6438C16.0304 10.8276 14.0406 10.7748 12.3568 11.1407C11.9884 10.8092 11.3962 10.308 10.558 8.65785C10.5011 8.55849 10.4705 8.8632 10.4268 8.76509C10.1011 8.0097 9.90434 6.77206 9.93666 5.91883C9.93666 5.91883 9.26302 6.22584 8.70548 7.50805C8.60196 7.73855 8.53557 7.8657 8.46923 7.99285C8.43872 8.02993 8.53841 7.57176 8.5225 7.5967C8.42559 7.76076 8.17491 7.99001 8.06471 8.28674C7.98902 8.50664 7.88287 8.6298 7.81512 8.90406L7.7992 8.92921C7.79373 8.84838 7.81927 8.59666 7.80068 8.64828C7.53935 9.17627 7.31446 9.72152 7.12759 10.2802C6.82741 11.2671 6.47795 12.6104 6.42255 14.358C6.40921 14.4905 6.42108 14.6389 6.40905 14.7581C5.69811 15.5699 5.21369 16.2573 5.03054 16.6136C4.11141 18.0339 3.09859 20.2473 2.11679 23.7485C2.5536 22.7921 3.07595 21.8772 3.67746 21.0148C2.86103 22.8732 2.07184 25.7916 1.91406 30.2859C2.11224 29.3559 2.36556 28.4384 2.67269 27.5384C2.5317 30.5353 2.88077 34.2508 4.77537 38.4427C5.90029 40.9084 8.4898 45.9157 14.8171 49.8232L14.8165 49.8236C14.8165 49.8236 16.969 51.4259 20.669 52.6268C20.9425 52.726 21.2195 52.8237 21.5021 52.9185C21.4134 52.8827 21.3276 52.845 21.2443 52.8063C23.707 53.5441 26.264 53.9199 28.8349 53.9219C38.4151 53.93 41.2406 50.0828 41.2406 50.0828C41.2406 50.0828 41.2306 50.0903 41.2125 50.1034C41.3477 49.9762 41.4779 49.8439 41.6031 49.7066C40.0916 51.1339 36.6422 51.2286 35.3524 51.1257C37.552 50.4796 38.9995 49.9331 41.815 48.8551C42.1445 48.7329 42.4814 48.5937 42.8258 48.4373C42.863 48.4209 42.9006 48.4031 42.938 48.3861C43.0063 48.3543 43.074 48.3242 43.1429 48.2907C44.5147 47.6443 45.8046 46.8367 46.9854 45.8852C49.8127 43.6266 50.4279 41.425 50.7495 39.9734C50.7046 40.1126 50.5649 40.4369 50.4667 40.647C49.7386 42.2046 48.1239 43.1604 46.3702 43.9801C47.2047 42.8852 47.9785 41.7453 48.6883 40.5657C49.2607 39.9979 49.4393 39.1097 49.8667 38.5128Z" fill="url(#paint6_radial_815_2684)"/>
<path d="M46.4258 43.9131C47.5786 42.6421 48.6139 41.1883 49.398 39.5398C51.416 35.2971 54.536 28.2425 52.0787 20.8747C50.1366 15.0514 47.4701 11.8672 44.0844 8.75667C38.5859 3.70541 37.0502 1.45037 37.0502 0.109375C37.0502 0.109375 30.7016 7.18643 33.455 14.5677C36.2083 21.949 41.8473 21.6784 45.578 29.3811C49.9681 38.4453 42.0261 48.3366 35.4584 51.1051C35.8606 51.0158 50.0584 47.8029 50.8045 39.6819C50.7876 39.8312 50.4677 42.0773 46.4258 43.9131Z" fill="url(#paint7_radial_815_2684)"/>
<path d="M28.0317 17.5751C28.0532 17.0955 27.8044 16.7734 23.8381 16.4013C22.2063 16.2507 21.5814 14.7424 21.391 14.1077C20.8107 15.6151 20.5711 17.197 20.6999 19.1103C20.788 20.3638 21.6301 21.7091 22.0327 22.499C22.0327 22.499 22.1221 22.3828 22.1634 22.3398C22.9214 21.5506 26.0974 20.3481 26.3958 20.1774C26.7247 19.9696 27.9764 19.055 28.0317 17.5751Z" fill="url(#paint8_linear_815_2684)"/>
<path d="M10.5724 8.6663C10.5155 8.56688 10.4849 8.8716 10.4411 8.77354C10.1155 8.01814 9.91735 6.79385 9.96427 5.92859C9.96427 5.92859 9.29063 6.2356 8.73309 7.51781C8.62957 7.74832 8.56318 7.87546 8.49684 8.00261C8.46632 8.03969 8.56602 7.58152 8.55011 7.60646C8.45325 7.77052 8.20257 7.99977 8.09368 8.28321C8.00339 8.51503 7.91054 8.6395 7.84141 8.927C7.82014 9.00514 7.86285 8.58121 7.84425 8.63283C6.54756 11.1389 6.30004 14.9281 6.43671 14.7679C9.19722 11.8202 12.3607 11.1212 12.3607 11.1212C12.0241 10.8732 11.2928 10.1573 10.5725 8.6663H10.5724Z" fill="url(#paint9_linear_815_2684)"/>
<path d="M21.0465 39.4899C17.2335 37.8619 12.8985 35.5658 13.0621 30.3495C13.285 23.4797 19.4685 24.8375 19.4685 24.8375C19.2351 24.8943 18.6112 25.3385 18.3901 25.812C18.1565 26.4041 17.7301 27.7412 19.0218 29.1425C21.0501 31.3405 14.8547 34.3573 24.4175 40.0563C24.6586 40.1876 22.1758 39.9781 21.0466 39.4899H21.0465Z" fill="url(#paint10_linear_815_2684)"/>
<path d="M19.6915 36.0664C22.3953 37.0075 25.5452 36.8424 27.431 35.8008C28.6934 35.098 30.313 33.9723 31.3095 34.2502C30.4467 33.9092 29.7933 33.7498 29.0072 33.7109C28.8733 33.7109 28.7129 33.708 28.5671 33.6934C28.2792 33.6925 27.9914 33.7082 27.7054 33.7406C27.2186 33.7853 26.6791 34.0924 26.1886 34.0431C26.1621 34.0404 26.6644 33.8367 26.6235 33.846C26.3636 33.9002 26.0813 33.9119 25.783 33.9488C25.5934 33.9699 25.4303 33.9937 25.2421 34.0015C19.6102 34.4791 14.8505 30.9492 14.8505 30.9492C14.4454 32.3137 16.6643 35.0125 19.6915 36.0664H19.6915Z" fill="url(#paint11_linear_815_2684)"/>
<path d="M46.4151 43.9493C52.1114 38.3565 54.9935 31.558 53.7751 23.9327C53.7751 23.9327 54.2618 27.8428 52.4162 31.842C53.3028 27.9377 53.406 23.0858 51.0504 18.0614C47.9062 11.355 42.7352 7.82622 40.7611 6.35404C37.77 4.12339 36.53 1.85222 36.5077 1.38354C35.6141 3.21432 32.9111 9.48823 36.2173 14.8914C39.3148 19.9535 44.1943 21.456 47.6102 26.0994C53.9034 34.6536 46.4151 43.9493 46.4151 43.9493Z" fill="url(#paint12_linear_815_2684)"/>
<path d="M45.5992 29.3973C43.6085 25.2848 41.1238 23.491 38.7734 21.5469C39.0469 21.9297 39.1143 22.0649 39.2656 22.3125C41.3343 24.5173 44.3848 29.8953 42.1701 36.6465C38.0013 49.3545 21.3263 43.3703 19.5781 41.6893C20.2853 49.0442 32.5957 52.5637 40.6109 47.7941C45.1719 43.4766 48.8615 36.1368 45.5992 29.3973Z" fill="url(#paint13_linear_815_2684)"/>
<defs>
<radialGradient id="paint0_radial_815_2684" cx="0" cy="0" r="1" gradientUnits="userSpaceOnUse" gradientTransform="translate(51.5802 13.5733) rotate(2.55481) scale(18.8075 27.6436)">
<stop offset="0.045" stop-color="#FFEA00"/>
<stop offset="0.12" stop-color="#FFDE00"/>
<stop offset="0.254" stop-color="#FFBF00"/>
<stop offset="0.429" stop-color="#FF8E00"/>
<stop offset="0.769" stop-color="#FF272D"/>
<stop offset="0.872" stop-color="#E0255A"/>
<stop offset="0.953" stop-color="#CC2477"/>
<stop offset="1" stop-color="#C42482"/>
</radialGradient>
<radialGradient id="paint1_radial_815_2684" cx="0" cy="0" r="1" gradientUnits="userSpaceOnUse" gradientTransform="translate(38.178 10.6713) scale(53.0062 53.0062)">
<stop stop-color="#00CCDA"/>
<stop offset="0.22" stop-color="#0083FF"/>
<stop offset="0.261" stop-color="#007AF9"/>
<stop offset="0.33" stop-color="#0060E8"/>
<stop offset="0.333" stop-color="#005FE7"/>
<stop offset="0.438" stop-color="#2639AD"/>
<stop offset="0.522" stop-color="#401E84"/>
<stop offset="0.566" stop-color="#4A1475"/>
</radialGradient>
<linearGradient id="paint2_linear_815_2684" x1="31.4822" y1="39.9868" x2="21.0129" y2="5.73998" gradientUnits="userSpaceOnUse">
<stop stop-color="#000F43" stop-opacity="0.4"/>
<stop offset="0.485" stop-color="#001962" stop-opacity="0.173"/>
<stop offset="1" stop-color="#002079" stop-opacity="0"/>
</linearGradient>
<radialGradient id="paint3_radial_815_2684" cx="0" cy="0" r="1" gradientUnits="userSpaceOnUse" gradientTransform="translate(56.2036 34.8606) rotate(5.76179) scale(17.882 17.8821)">
<stop offset="0.003" stop-color="#FFEA00"/>
<stop offset="0.497" stop-color="#FF272D"/>
<stop offset="1" stop-color="#C42482"/>
</radialGradient>
<radialGradient id="paint4_radial_815_2684" cx="0" cy="0" r="1" gradientUnits="userSpaceOnUse" gradientTransform="translate(56.3149 17.6381) rotate(5.76178) scale(29.8616 29.8616)">
<stop offset="0.003" stop-color="#FFE900"/>
<stop offset="0.157" stop-color="#FFAF0E"/>
<stop offset="0.316" stop-color="#FF7A1B"/>
<stop offset="0.472" stop-color="#FF4E26"/>
<stop offset="0.621" stop-color="#FF2C2E"/>
<stop offset="0.762" stop-color="#FF1434"/>
<stop offset="0.892" stop-color="#FF0538"/>
<stop offset="1" stop-color="#FF0039"/>
</radialGradient>
<radialGradient id="paint5_radial_815_2684" cx="0" cy="0" r="1" gradientUnits="userSpaceOnUse" gradientTransform="translate(57.7378 45.6034) rotate(5.76176) scale(27.4013 27.4012)">
<stop offset="0.003" stop-color="#FF272D"/>
<stop offset="0.497" stop-color="#C42482"/>
<stop offset="0.986" stop-color="#620700"/>
</radialGradient>
<radialGradient id="paint6_radial_815_2684" cx="0" cy="0" r="1" gradientUnits="userSpaceOnUse" gradientTransform="translate(41.026 21.6585) scale(42.7755)">
<stop offset="0.156" stop-color="#FFEA00"/>
<stop offset="0.231" stop-color="#FFDE00"/>
<stop offset="0.365" stop-color="#FFBF00"/>
<stop offset="0.541" stop-color="#FF8E00"/>
<stop offset="0.763" stop-color="#FF272D"/>
<stop offset="0.796" stop-color="#F92433"/>
<stop offset="0.841" stop-color="#E91C45"/>
<stop offset="0.893" stop-color="#CF0E62"/>
<stop offset="0.935" stop-color="#B5007F"/>
</radialGradient>
<radialGradient id="paint7_radial_815_2684" cx="0" cy="0" r="1" gradientUnits="userSpaceOnUse" gradientTransform="translate(37.808 0.179866) scale(50.5102 50.5102)">
<stop offset="0.279" stop-color="#FFEA00"/>
<stop offset="0.402" stop-color="#FFDD00"/>
<stop offset="0.63" stop-color="#FFBA00"/>
<stop offset="0.856" stop-color="#FF9100"/>
<stop offset="0.933" stop-color="#FF6711"/>
<stop offset="0.994" stop-color="#FF4A1D"/>
</radialGradient>
<linearGradient id="paint8_linear_815_2684" x1="11.7078" y1="19.5163" x2="31.152" y2="16.597" gradientUnits="userSpaceOnUse">
<stop stop-color="#C42482" stop-opacity="0.5"/>
<stop offset="0.474" stop-color="#FF272D" stop-opacity="0.5"/>
<stop offset="0.486" stop-color="#FF2C2C" stop-opacity="0.513"/>
<stop offset="0.675" stop-color="#FF7A1A" stop-opacity="0.72"/>
<stop offset="0.829" stop-color="#FFB20D" stop-opacity="0.871"/>
<stop offset="0.942" stop-color="#FFD605" stop-opacity="0.964"/>
<stop offset="1" stop-color="#FFE302"/>
</linearGradient>
<linearGradient id="paint9_linear_815_2684" x1="9.76912" y1="14.3211" x2="7.56442" y2="6.41305" gradientUnits="userSpaceOnUse">
<stop stop-color="#891551" stop-opacity="0.6"/>
<stop offset="1" stop-color="#C42482" stop-opacity="0"/>
</linearGradient>
<linearGradient id="paint10_linear_815_2684" x1="13.9722" y1="25.756" x2="18.5085" y2="32.0868" gradientUnits="userSpaceOnUse">
<stop offset="0.005" stop-color="#891551" stop-opacity="0.5"/>
<stop offset="0.484" stop-color="#FF272D" stop-opacity="0.5"/>
<stop offset="1" stop-color="#FF272D" stop-opacity="0"/>
</linearGradient>
<linearGradient id="paint11_linear_815_2684" x1="22.6449" y1="36.8393" x2="23.0576" y2="32.7705" gradientUnits="userSpaceOnUse">
<stop stop-color="#C42482"/>
<stop offset="0.083" stop-color="#C42482" stop-opacity="0.81"/>
<stop offset="0.206" stop-color="#C42482" stop-opacity="0.565"/>
<stop offset="0.328" stop-color="#C42482" stop-opacity="0.362"/>
<stop offset="0.447" stop-color="#C42482" stop-opacity="0.204"/>
<stop offset="0.562" stop-color="#C42482" stop-opacity="0.091"/>
<stop offset="0.673" stop-color="#C42482" stop-opacity="0.023"/>
<stop offset="0.773" stop-color="#C42482" stop-opacity="0"/>
</linearGradient>
<linearGradient id="paint12_linear_815_2684" x1="35.8491" y1="2.08464" x2="52.5646" y2="39.4633" gradientUnits="userSpaceOnUse">
<stop stop-color="#FFF14F"/>
<stop offset="0.268" stop-color="#FFEE4C"/>
<stop offset="0.452" stop-color="#FFE643"/>
<stop offset="0.612" stop-color="#FFD834"/>
<stop offset="0.757" stop-color="#FFC41E"/>
<stop offset="0.892" stop-color="#FFAB02"/>
<stop offset="0.902" stop-color="#FFA900"/>
<stop offset="0.949" stop-color="#FFA000"/>
<stop offset="1" stop-color="#FF9100"/>
</linearGradient>
<linearGradient id="paint13_linear_815_2684" x1="39.15" y1="23.5818" x2="31.2319" y2="44.8416" gradientUnits="userSpaceOnUse">
<stop stop-color="#FF8E00"/>
<stop offset="0.04" stop-color="#FF8E00" stop-opacity="0.858"/>
<stop offset="0.084" stop-color="#FF8E00" stop-opacity="0.729"/>
<stop offset="0.13" stop-color="#FF8E00" stop-opacity="0.628"/>
<stop offset="0.178" stop-color="#FF8E00" stop-opacity="0.557"/>
<stop offset="0.227" stop-color="#FF8E00" stop-opacity="0.514"/>
<stop offset="0.282" stop-color="#FF8E00" stop-opacity="0.5"/>
<stop offset="0.389" stop-color="#FF8E00" stop-opacity="0.478"/>
<stop offset="0.524" stop-color="#FF8E00" stop-opacity="0.416"/>
<stop offset="0.676" stop-color="#FF8E00" stop-opacity="0.314"/>
<stop offset="0.838" stop-color="#FF8E00" stop-opacity="0.172"/>
<stop offset="1" stop-color="#FF8E00" stop-opacity="0"/>
</linearGradient>
</defs>
</svg>
