<svg width="32" height="32" viewBox="0 0 32 32" fill="none" xmlns="http://www.w3.org/2000/svg">
<g id="calendar-month">
<path id="Vector" d="M12 13.3333V15.9999H9.33333V13.3333H12ZM17.3333 13.3333V15.9999H14.6667V13.3333H17.3333ZM22.6667 13.3333V15.9999H20V13.3333H22.6667ZM25.3333 3.99992C26.0406 3.99992 26.7189 4.28087 27.219 4.78097C27.719 5.28106 28 5.95934 28 6.66658V25.3333C28 26.0405 27.719 26.7188 27.219 27.2189C26.7189 27.719 26.0406 27.9999 25.3333 27.9999H6.66667C5.18667 27.9999 4 26.7999 4 25.3333V6.66658C4 5.95934 4.28095 5.28106 4.78105 4.78097C5.28115 4.28087 5.95942 3.99992 6.66667 3.99992H8V1.33325H10.6667V3.99992H21.3333V1.33325H24V3.99992H25.3333ZM25.3333 25.3333V10.6666H6.66667V25.3333H25.3333ZM12 18.6666V21.3333H9.33333V18.6666H12ZM17.3333 18.6666V21.3333H14.6667V18.6666H17.3333ZM22.6667 18.6666V21.3333H20V18.6666H22.6667Z" fill="#171A36"/>
</g>
</svg>
