<svg width="120" height="72" viewBox="0 0 120 72" fill="none" xmlns="http://www.w3.org/2000/svg">
<path d="M108 68C103.58 68 100 64.42 100 60C100 55.58 103.58 52 108 52C112.42 52 116 55.58 116 60C116 64.42 112.42 68 108 68ZM108 50C102.48 50 98 54.48 98 60C98 65.52 102.48 70 108 70C113.52 70 118 65.52 118 60C118 54.48 113.52 50 108 50Z" fill="#C4C6D4"/>
<path d="M60 68C55.58 68 52 64.42 52 60C52 55.58 55.58 52 60 52C64.42 52 68 55.58 68 60C68 64.42 64.42 68 60 68ZM60 50C54.48 50 50 54.48 50 60C50 65.52 54.48 70 60 70C65.52 70 70 65.52 70 60C70 54.48 65.52 50 60 50ZM60 55C57.24 55 55 57.24 55 60C55 62.76 57.24 65 60 65C62.76 65 65 62.76 65 60C65 57.24 62.76 55 60 55Z" fill="#0051EE"/>
<path d="M12 68C7.58 68 4 64.42 4 60C4 55.58 7.58 52 12 52C16.42 52 20 55.58 20 60C20 64.42 16.42 68 12 68ZM12 50C6.48 50 2 54.48 2 60C2 65.52 6.48 70 12 70C17.52 70 22 65.52 22 60C22 54.48 17.52 50 12 50Z" fill="#4C4E67"/>
<path d="M115 3H101C99.89 3 99 3.89 99 5V19C99 20.1 99.9 21 101 21H115C116.1 21 117 20.1 117 19V5C117 3.89 116.1 3 115 3ZM115 5V19H101V5H115Z" fill="#C4C6D4"/>
<path d="M58 17L53 12L54.41 10.58L58 14.17L65.59 6.58L67 8L58 17ZM67 3H53C51.89 3 51 3.89 51 5V19C51 20.1 51.9 21 53 21H67C68.1 21 69 20.1 69 19V5C69 3.89 68.1 3 67 3Z" fill="#0051EE"/>
<path d="M19 3H5C3.89 3 3 3.89 3 5V19C3 20.1 3.9 21 5 21H19C20.1 21 21 20.1 21 19V5C21 3.89 20.1 3 19 3ZM19 5V19H5V5H19Z" fill="#4C4E67"/>
</svg>
