<svg width="24" height="24" viewBox="0 0 24 24" fill="none" xmlns="http://www.w3.org/2000/svg">
<path d="M2 12.2344C2 13.3542 2.31901 14.4089 2.95703 15.3984C3.59505 16.388 4.44792 17.1953 5.51562 17.8203C5.46354 18.0026 5.40495 18.237 5.33984 18.5234C5.27474 18.8099 5.18359 19.2591 5.06641 19.8711C4.94922 20.4831 4.90365 20.9909 4.92969 21.3945C4.95573 21.7982 5.08594 22 5.32031 22C6.10156 22 6.88932 21.7917 7.68359 21.375C8.47786 20.9583 9.10938 20.5417 9.57812 20.125C10.0469 19.7083 10.2943 19.5 10.3203 19.5C11.7526 19.5 13.1458 19.2266 14.5 18.6797C14.3438 18.6276 14.0508 18.4714 13.6211 18.2109C13.1914 17.9505 12.9245 17.8203 12.8203 17.8203H10.3203C9.85156 17.8203 9.35677 18.0807 8.83594 18.6016C8.10677 19.2526 7.41667 19.7214 6.76562 20.0078L7 17L6.33594 16.4141C4.5651 15.2682 3.67969 13.875 3.67969 12.2344C3.67969 11.8177 3.75781 11.349 3.91406 10.8281C3.8099 10.6719 3.73828 10.431 3.69922 10.1055C3.66016 9.77995 3.64062 9.48698 3.64062 9.22656V8.32812L3.67969 7.82031C2.5599 9.01823 2 10.4896 2 12.2344ZM13.6797 2C11.362 2 9.38932 2.67708 7.76172 4.03125C6.13411 5.38542 5.32031 7.01302 5.32031 8.91406C5.32031 10.7891 6.1276 12.3255 7.74219 13.5234C9.35677 14.7214 11.3359 15.3203 13.6797 15.3203C13.7057 15.3203 13.9727 15.6003 14.4805 16.1602C14.9883 16.7201 15.6589 17.2799 16.4922 17.8398C17.3255 18.3997 18.1328 18.6797 18.9141 18.6797C19.0964 18.6797 19.207 18.5365 19.2461 18.25C19.2852 17.9635 19.2656 17.6185 19.1875 17.2148C19.1094 16.8112 19.0182 16.401 18.9141 15.9844C18.8099 15.5677 18.7188 15.2161 18.6406 14.9297L18.4844 14.5C19.5521 13.849 20.4049 13.0352 21.043 12.0586C21.681 11.082 22 10.0339 22 8.91406C22 7.01302 21.1862 5.38542 19.5586 4.03125C17.931 2.67708 15.9714 2 13.6797 2ZM17.6641 13.0938L16.5703 13.7578L17 15.0078C17.0521 15.138 17.1172 15.3594 17.1953 15.6719C17.2734 15.9844 17.3516 16.2318 17.4297 16.4141C16.8568 16.0234 16.1797 15.4375 15.3984 14.6562C14.7995 14.0052 14.2526 13.6797 13.7578 13.6797C11.9349 13.6797 10.3659 13.2565 9.05078 12.4102C7.73568 11.5638 7.07812 10.3984 7.07812 8.91406C7.05208 7.45573 7.68359 6.21875 8.97266 5.20312C10.2617 4.1875 11.8307 3.67969 13.6797 3.67969C15.5286 3.67969 17.0977 4.1875 18.3867 5.20312C19.6758 6.21875 20.3203 7.45573 20.3203 8.91406C20.3203 10.5547 19.4349 11.9479 17.6641 13.0938Z" fill="#737697"/>
</svg>
