<svg width="32" height="32" viewBox="0 0 32 32" fill="none" xmlns="http://www.w3.org/2000/svg">
<path d="M2.66675 16.3125C2.66675 17.8056 3.0921 19.2118 3.94279 20.5313C4.79348 21.8507 5.93064 22.9271 7.35425 23.7604C7.2848 24.0035 7.20668 24.316 7.11987 24.6979C7.03307 25.0799 6.91154 25.6788 6.75529 26.4948C6.59904 27.3108 6.53828 27.9879 6.573 28.526C6.60772 29.0642 6.78133 29.3333 7.09383 29.3333C8.1355 29.3333 9.18585 29.0556 10.2449 28.5C11.3039 27.9445 12.1459 27.3889 12.7709 26.8333C13.3959 26.2778 13.7258 26 13.7605 26C15.6702 26 17.5279 25.6354 19.3334 24.9063C19.1251 24.8368 18.7345 24.6285 18.1615 24.2813C17.5886 23.934 17.2327 23.7604 17.0938 23.7604H13.7605C13.1355 23.7604 12.4758 24.1076 11.7813 24.8021C10.8091 25.6701 9.88897 26.2951 9.02092 26.6771L9.33342 22.6667L8.448 21.8854C6.08689 20.3576 4.90633 18.5 4.90633 16.3125C4.90633 15.757 5.0105 15.132 5.21883 14.4375C5.07994 14.2292 4.98446 13.908 4.93237 13.474C4.88029 13.0399 4.85425 12.6493 4.85425 12.3021V11.1042L4.90633 10.4271C3.41328 12.0243 2.66675 13.9861 2.66675 16.3125ZM18.2397 2.66667C15.1494 2.66667 12.5192 3.56945 10.349 5.37501C8.1789 7.18056 7.09383 9.3507 7.09383 11.8854C7.09383 14.3854 8.17022 16.434 10.323 18.0313C12.4758 19.6285 15.1147 20.4271 18.2397 20.4271C18.2744 20.4271 18.6303 20.8004 19.3074 21.5469C19.9845 22.2934 20.8786 23.0399 21.9897 23.7865C23.1008 24.533 24.1772 24.9063 25.2188 24.9063C25.4619 24.9063 25.6095 24.7153 25.6615 24.3333C25.7136 23.9514 25.6876 23.4913 25.5834 22.9531C25.4792 22.4149 25.3577 21.8681 25.2188 21.3125C25.0799 20.757 24.9584 20.2882 24.8542 19.9063L24.6459 19.3333C26.0695 18.4653 27.2067 17.3802 28.0574 16.0781C28.9081 14.776 29.3334 13.3785 29.3334 11.8854C29.3334 9.3507 28.2483 7.18056 26.0782 5.37501C23.9081 3.56945 21.2952 2.66667 18.2397 2.66667ZM23.5522 17.4583L22.0938 18.3438L22.6667 20.0104C22.7362 20.184 22.823 20.4792 22.9272 20.8958C23.0313 21.3125 23.1355 21.6424 23.2397 21.8854C22.4758 21.3646 21.573 20.5833 20.5313 19.5417C19.7327 18.6736 19.0036 18.2396 18.3438 18.2396C15.9133 18.2396 13.8213 17.6754 12.0678 16.5469C10.3143 15.4184 9.43758 13.8646 9.43758 11.8854C9.40286 9.94098 10.2449 8.29167 11.9636 6.93751C13.6824 5.58334 15.7744 4.90626 18.2397 4.90626C20.7049 4.90626 22.797 5.58334 24.5157 6.93751C26.2345 8.29167 27.0938 9.94098 27.0938 11.8854C27.0938 14.0729 25.9133 15.9306 23.5522 17.4583Z" fill="url(#paint0_linear_33_139)"/>
<defs>
<linearGradient id="paint0_linear_33_139" x1="16.0001" y1="2.66667" x2="16.0001" y2="29.3333" gradientUnits="userSpaceOnUse">
<stop stop-color="#0054F7"/>
<stop offset="1" stop-color="#200DFF"/>
</linearGradient>
</defs>
</svg>
