<svg width="24" height="24" viewBox="0 0 24 24" fill="none" xmlns="http://www.w3.org/2000/svg">
<path d="M2 5.80792H10.4181" stroke="#737697" stroke-width="1.06481" stroke-linecap="round" stroke-linejoin="round"/>
<path d="M13.2755 5.80791C13.2755 6.51235 12.7045 7.08341 12 7.08341C11.2956 7.08341 10.7245 6.51235 10.7245 5.80791C10.7245 5.10347 11.2956 4.53241 12 4.53241C12.7045 4.53241 13.2755 5.10347 13.2755 5.80791Z" stroke="#737697" stroke-width="1.06481"/>
<path d="M13.582 5.80792H21.9436" stroke="#737697" stroke-width="1.06481" stroke-linecap="round" stroke-linejoin="round"/>
<path d="M2.0564 12.1356H16.6892" stroke="#737697" stroke-width="1.06481" stroke-linecap="round" stroke-linejoin="round"/>
<path d="M2 18.4633H5.33333" stroke="#737697" stroke-width="1.06481" stroke-linecap="round" stroke-linejoin="round"/>
<path d="M8.30363 18.4633C8.30363 19.1677 7.73257 19.7388 7.02812 19.7388C6.32368 19.7388 5.75262 19.1677 5.75262 18.4633C5.75262 17.7589 6.32368 17.1878 7.02812 17.1878C7.73257 17.1878 8.30363 17.7589 8.30363 18.4633Z" stroke="#737697" stroke-width="1.06481"/>
<path d="M8.6665 18.4633H21.9433" stroke="#737697" stroke-width="1.06481" stroke-linecap="round" stroke-linejoin="round"/>
<path d="M19.6032 12.1355C19.6032 12.84 19.0321 13.411 18.3277 13.411C17.6232 13.411 17.0522 12.84 17.0522 12.1355C17.0522 11.4311 17.6232 10.86 18.3277 10.86C19.0321 10.86 19.6032 11.4311 19.6032 12.1355Z" stroke="#737697" stroke-width="1.06481"/>
<path d="M19.7966 12.1356H22" stroke="#737697" stroke-width="1.06481" stroke-linecap="round" stroke-linejoin="round"/>
</svg>
