<svg width="32" height="32" viewBox="0 0 32 32" fill="none" xmlns="http://www.w3.org/2000/svg">
<path d="M15.6667 4C17.0812 4 18.4377 4.5619 19.4379 5.5621C20.4381 6.56229 21 7.91885 21 9.33333C21 10.7478 20.4381 12.1044 19.4379 13.1046C18.4377 14.1048 17.0812 14.6667 15.6667 14.6667C14.2522 14.6667 12.8956 14.1048 11.8954 13.1046C10.8952 12.1044 10.3333 10.7478 10.3333 9.33333C10.3333 7.91885 10.8952 6.56229 11.8954 5.5621C12.8956 4.5619 14.2522 4 15.6667 4ZM21 18.0533C21 19.4667 20.6267 22.76 18.08 26.44L17 20L18.2533 17.4933C17.4267 17.4 16.56 17.3333 15.6667 17.3333C14.7733 17.3333 13.9067 17.4 13.08 17.4933L14.3333 20L13.2533 26.44C10.7067 22.76 10.3333 19.4667 10.3333 18.0533C7.14667 18.9867 5 20.6667 5 22.6667V28H13H14.4533H16.88H18.3333H26.3333V22.6667C26.3333 20.6667 24.2 18.9867 21 18.0533Z" fill="#0051ED"/>
</svg>
