<svg width="48" height="48" viewBox="0 0 48 48" fill="none" xmlns="http://www.w3.org/2000/svg">
<path d="M45.0666 16.6123C44.6252 12.7167 37.3114 5.70625 33.4006 5.4302C29.6636 5.16641 25.8683 4.82192 22.1232 5.10757C20.2744 5.24858 18.4144 5.51745 16.6018 5.90681C14.871 6.27862 13.0355 6.61944 11.4398 7.4173C8.84084 8.71676 7.24231 10.6738 6.10903 13.3273C5.0317 15.8498 5.10448 18.4884 5.10448 21.1877C5.10448 22.756 5.07156 24.3329 5.23647 25.8952C5.34176 26.8927 5.70277 27.8073 5.89639 28.7842C6.56222 32.1436 7.95374 35.2477 10.3839 37.7005C13.5628 40.9092 17.8136 41.9334 22.1305 42.4447C24.72 42.7513 27.3009 42.7251 29.8443 42.1147C32.258 41.5354 34.3951 40.5118 36.6416 39.475C39.6784 38.0734 41.5775 36.0049 42.8815 32.9784C44.2122 29.89 45.5974 26.9466 45.6239 23.5195C45.6411 21.2935 45.4404 18.8067 45.0666 16.6123ZM45.0666 16.6123C44.4085 13.102 41.2543 9.48526 37.8661 8.35586C37.1361 8.11253 36.3355 8.19455 35.5784 8.19455C34.3257 8.19455 33.0805 8.15786 31.8461 8.41452C30.4357 8.70779 29.1333 9.33925 27.7839 9.82236C27.0433 10.0875 26.2778 10.2855 25.5475 10.5776C23.3546 11.4548 21.3806 12.9469 19.9895 14.8525C17.9356 17.6657 16.0826 20.6958 15.1647 24.0767C14.7075 25.7606 14.6846 27.4749 14.6367 29.2095C14.5839 31.1238 14.459 33.1562 14.93 35.0315C15.5046 37.3188 17.0344 39.3844 19.3882 40.0029C23.067 40.9696 27.2656 39.6067 30.7829 38.6318C32.8979 38.0455 35.1191 37.5276 36.9715 36.2927C38.3675 35.362 39.3562 33.891 40.0585 32.3918C40.8393 30.7252 41.2106 28.9126 41.4517 27.0977C41.7022 25.2126 41.8955 23.0998 41.3564 21.2464C40.7812 19.2694 39.8676 17.3316 39.0173 15.4611C38.2319 13.7331 37.3431 11.8348 35.989 10.4676C34.6279 9.09347 32.6842 7.79572 30.7976 7.28532C29.104 6.82716 26.9791 6.95996 25.2542 7.06534C22.9565 7.20572 20.7215 7.77616 18.5963 8.64916C16.6199 9.461 14.5043 10.2584 12.6863 11.3915C9.7238 13.2379 7.65804 16.9428 7.77351 20.4398C7.88808 23.9095 9.64386 27.1463 11.3811 30.0454C12.6022 32.0832 13.944 35.2582 16.5872 35.6988C19.0881 36.1156 21.9438 35.7725 24.3523 35.1122C27.4355 34.2668 29.9421 32.8738 32.5574 31.0939C35.2688 29.2487 37.2889 25.9335 38.5627 22.9695C39.7662 20.169 38.8673 17.4208 37.2795 14.9844C35.1532 11.7216 31.6232 9.59713 27.8939 8.72249C24.1108 7.83525 19.0456 7.09801 15.458 9.04512C12.2863 10.7665 9.97138 14.3641 9.43066 17.8881C8.93114 21.1436 9.2002 24.2761 10.4572 27.325C11.7029 30.3465 13.4046 34.0508 16.3525 35.7648C18.9253 37.2606 22.0503 37.1733 24.9022 36.762C27.8712 36.3337 31.242 35.4163 33.6646 33.609C35.6309 32.1421 36.95 29.9355 37.9101 27.699C39.0218 25.1092 39.6897 21.1645 38.4674 18.5187C37.4329 16.2795 35.6377 15.1022 33.3933 14.2952C29.3206 12.8308 24.6638 12.0963 20.3414 12.3154C19.2358 12.3715 18.1126 12.5317 17.1884 13.188C15.8538 14.1357 15.0771 15.7632 14.2994 17.1549C13.2198 19.0869 12.6755 21.4217 12.9136 23.6441C13.039 24.8142 13.7667 25.9508 14.3581 26.9364C15.207 28.3512 16.1636 29.5761 17.4891 30.5733C20.5734 32.8939 24.2165 34.9039 27.8866 36.1094C30.5696 36.9907 34.0079 38.2141 36.6782 36.6153C37.9108 35.8774 39.0845 35.0529 39.7872 33.7703C40.6163 32.2571 41.2642 30.5416 41.635 28.8575C41.9412 27.4669 42.3294 25.8767 42.2363 24.4434C42.1148 22.575 41.0467 20.8544 40.0072 19.3546C38.7368 17.5217 37.2213 16.5452 35.1531 15.7764C33.4363 15.1382 31.6605 14.8717 29.837 14.7571C27.3096 14.5984 24.388 14.4232 22.0059 15.4537C19.7469 16.431 18.9849 18.744 18.1123 20.8578C17.3912 22.6049 16.555 24.36 16.4699 26.2765C16.3754 28.4021 16.7705 30.4957 18.2663 32.0912C20.1319 34.0811 23.2775 35.4561 25.9361 35.8161C29.2142 36.26 32.5749 34.223 34.3098 31.5192C35.6165 29.4828 36.2194 27.0682 36.4143 24.678C36.6069 22.3145 36.7454 19.59 35.6297 17.4188C33.6305 13.5286 28.7548 11.319 24.4916 12.6894C21.556 13.633 19.4674 16.0447 18.039 18.68C16.5349 21.4551 15.3275 24.7163 15.7879 27.919C16.2918 31.4242 19.3554 32.4611 22.3799 33.3304C24.4202 33.9168 26.4563 34.3427 28.5831 34.4302C29.8973 34.4843 31.3628 34.5379 32.4547 33.6823C34.9541 31.7239 35.1888 27.4888 35.2997 24.59C35.415 21.5779 34.4971 18.3951 32.3521 16.187C29.8361 13.597 26.1812 12.1628 22.6218 12.0368C19.2421 11.9171 15.1632 12.913 12.6716 15.3291C7.11229 20.7199 12.2919 30.5461 17.7017 33.829C20.8574 35.744 24.4889 37.0964 28.1725 37.4072C29.9891 37.5605 32.1331 37.7234 33.8919 37.1286C36.0743 36.3906 37.9596 34.8352 39.2299 32.9344C40.9229 30.4013 41.4529 27.696 42.0896 24.7953C42.7663 21.7128 42.5067 18.7574 40.6524 16.1137C39.0454 13.8224 35.6111 12.4854 33.0706 11.6335C27.1654 9.65331 20.8066 8.85447 14.6001 8.85447C11.2755 8.85447 8.53638 9.99655 6.10903 12.2348C3.63533 14.5157 3.48462 17.8813 3.67464 21.0484C3.84481 23.8845 4.75259 27.0083 5.86706 29.6055C6.9983 32.2416 8.29836 35.0385 10.8678 36.542C14.4015 38.6098 18.7533 38.503 22.7171 38.6538C24.2515 38.7121 25.88 38.9287 27.4099 38.7564C28.6823 38.6132 29.9295 38.1278 31.1202 37.6859C32.1161 37.3163 33.1275 36.9005 33.9725 36.2414C34.7669 35.6218 35.2685 34.6735 35.9303 33.9243C37.646 31.982 38.4642 29.8138 38.702 27.2664C38.7933 26.2882 39.0007 25.2734 38.856 24.2894C38.6738 23.0508 37.8933 21.9288 37.0229 21.0704C35.251 19.3231 32.6953 18.194 30.3063 17.5728C28.3534 17.0651 25.494 16.675 24.0517 18.504C22.9656 19.8812 22.2953 21.903 21.7199 23.5341C21.2043 24.9959 20.8461 26.5969 20.8107 28.1536C20.7715 29.8765 20.97 31.0217 22.8931 31.5559C24.4882 31.999 26.9089 32.1158 28.4072 31.3286C30.2457 30.3626 32.6682 29.1204 33.6206 27.1931C34.6932 25.0223 35.1646 23.1316 33.7819 21.0044C32.2214 18.6036 28.7391 18.187 26.1341 18.2327C22.7042 18.2929 18.9987 18.2841 16.2352 20.6158C14.3993 22.1648 14.7109 24.5492 15.634 26.5258C16.7494 28.9144 18.6346 30.6573 21.2213 31.3799C22.9174 31.8537 24.8399 31.7403 26.5887 31.7905C28.2953 31.8395 29.7604 31.3889 31.2815 30.6173C34.4685 29.0008 36.5472 23.6827 33.4079 21.0191C31.5856 19.4729 28.3721 18.1352 26.1854 19.5746C24.5651 20.6411 23.9783 22.5552 23.9783 24.414C23.9783 25.6165 24.252 26.7403 25.5622 27.0391C27.7632 27.5411 30.4754 27.0347 32.44 25.9685C34.6777 24.7542 34.7162 22.6874 32.5427 21.3637C30.2189 19.9485 27.2545 20.7531 25.7968 23.0795C25.095 24.1995 24.1674 26.3445 26.1561 26.6505C27.9647 26.9287 28.876 24.2784 28.6858 22.8522C28.4187 20.8489 25.7006 21.1171 24.8142 22.5149C24.2131 23.4629 24.8425 24.6187 25.3202 25.4626C25.9672 26.6056 26.8097 27.6395 28.1799 27.875C29.9263 28.1751 30.255 26.3026 30.255 24.9713C30.255 23.5918 29.038 23.8118 28.1872 24.458C27.721 24.8122 27.0332 25.6142 27.014 26.2472C27.0024 26.6297 27.8614 26.8213 28.1139 26.8778C28.8129 27.034 29.8185 27.1801 30.5189 27.0097C31.0773 26.8739 31.0557 26.1446 31.0469 25.6899C31.0336 25.0071 30.8384 24.4039 30.3063 23.9521C29.8703 23.5819 28.4968 22.5044 27.8499 22.7789C26.958 23.1573 26.2958 24.6914 25.9288 25.5139C25.5318 26.4036 25.4818 27.1917 25.9948 28.051C26.2479 28.475 27.4154 30.0531 28.0699 29.2168C28.6353 28.4943 28.5648 27.2556 28.5905 26.3938C28.6207 25.3816 28.4569 24.6688 27.6519 23.9888C26.0003 22.5934 23.4961 23.2589 22.1745 24.766C21.1719 25.9094 19.3846 29.5703 22.1012 29.9721C24.5509 30.3344 26.4494 29.4161 27.4393 27.1271C28.1782 25.4183 28.7815 23.3576 26.6914 22.3463C24.5255 21.2983 21.0515 23.7563 23.4504 25.9245C23.8509 26.2865 25.2657 26.6055 25.5622 26.0125" stroke="#4C4E67" stroke-linecap="round" stroke-linejoin="round"/>
</svg>
