<svg width="24" height="24" viewBox="0 0 24 24" fill="none" xmlns="http://www.w3.org/2000/svg">
<g clip-path="url(#clip0_1069_3022)">
<path d="M11.9999 22.5926C10.1841 22.5926 8.70693 21.1154 8.70693 19.2997C8.70693 16.131 10.2054 14.7116 11.3734 14.0864C11.2246 14.8909 11.3565 15.6532 11.6045 16.2207C11.974 17.0666 12.6333 17.6206 13.3683 17.7028C13.657 17.7349 14.1402 17.71 14.6467 17.3415C15.0624 17.904 15.2927 18.5902 15.2927 19.2997C15.2927 21.1155 13.8155 22.5926 11.9999 22.5926Z" fill="#E22A01"/>
<path fill-rule="evenodd" clip-rule="evenodd" d="M21.8006 13.628L21.6945 11.7368L20.5401 13.2384C20.4481 13.3579 20.2524 13.5694 20.0026 13.7621C20.1013 13.435 20.1894 13.062 20.2477 12.6505C20.4494 11.2256 20.3238 9.03862 18.581 6.71175L17.8498 5.73544L17.3706 6.8572C16.8179 8.15114 15.9236 8.80031 15.0925 8.51095C14.4526 8.2883 13.9326 7.55602 13.6657 6.50175C13.4169 5.51841 13.2722 3.78802 13.9969 1.12852L14.3044 0L13.1633 0.257062C9.3142 1.12416 6.72047 3.85763 5.6624 8.16187C5.21765 9.9712 5.13389 11.6854 5.14636 12.8448C4.23689 12.1095 3.78271 11.4644 3.77081 11.4473L2.90451 10.1745L2.50992 11.6648C2.29303 12.4839 2.18311 13.3313 2.18311 14.1833C2.18311 19.5558 6.52139 23.9333 11.8787 23.9985C11.919 23.9995 11.9593 24 11.9998 24C12.0403 24 12.0807 23.9995 12.1209 23.9985C17.4783 23.9333 21.8165 19.5558 21.8165 14.1833C21.8165 14.0036 21.8112 13.8167 21.8006 13.628ZM8.70693 19.2997C8.70693 21.1154 10.1841 22.5926 11.9999 22.5926C13.8155 22.5926 15.2927 21.1155 15.2927 19.2997C15.2927 18.5902 15.0624 17.904 14.6467 17.3415C14.1402 17.71 13.657 17.7349 13.3683 17.7028C12.6333 17.6206 11.974 17.0666 11.6045 16.2207C11.3565 15.6532 11.2246 14.8909 11.3734 14.0864C10.2054 14.7116 8.70693 16.131 8.70693 19.2997ZM16.7002 19.2997C16.7002 20.0904 16.5036 20.836 16.1572 21.4906C18.4107 20.2034 20.0151 17.9044 20.346 15.2166C19.7857 15.5258 19.212 15.6466 18.6626 15.5675L17.5714 15.4103L18.1734 14.4867C18.177 14.4812 18.697 13.6557 18.8626 12.3922C19.0377 11.0565 18.7696 9.74775 18.065 8.48958C17.7389 8.94445 17.3595 9.30778 16.9401 9.56306C16.2115 10.0065 15.3913 10.105 14.6302 9.84019C13.5353 9.45928 12.6865 8.36831 12.3015 6.84713C11.9576 5.48841 11.9774 3.81525 12.3539 1.95609C9.65418 2.93714 7.86853 5.12044 7.03814 8.46211C6.3119 11.3843 6.62015 14.1309 6.62334 14.1584L6.7882 15.5707L5.56537 14.8456C4.74623 14.3596 4.10282 13.8359 3.62821 13.3862C3.60328 13.6507 3.59072 13.9167 3.59072 14.1833C3.59072 17.3091 5.30512 20.0417 7.84284 21.491C7.49629 20.8363 7.29965 20.0906 7.29965 19.2997C7.29965 17.4843 7.75045 14.9816 9.89784 13.3677C11.1912 12.3957 12.4955 12.2229 12.5504 12.216L14.1782 12.012L13.2041 13.3322C12.5902 14.164 12.6415 15.0788 12.8943 15.6573C13.0771 16.0759 13.3426 16.2838 13.5247 16.3041C13.7542 16.3302 13.9852 16.0669 14.1022 15.9078L14.562 15.2832L15.1391 15.8013C16.1311 16.692 16.7002 17.9672 16.7002 19.2997Z" fill="#E22A01"/>
</g>
<defs>
<clipPath id="clip0_1069_3022">
<rect width="24" height="24" fill="white"/>
</clipPath>
</defs>
</svg>
