<svg width="24" height="24" viewBox="0 0 24 24" fill="none" xmlns="http://www.w3.org/2000/svg">
<g clip-path="url(#clip0_1069_3013)">
<path d="M21.8008 13.628L21.6948 11.7368L20.5403 13.2384C20.4484 13.3579 20.2527 13.5694 20.0028 13.7621C20.1016 13.435 20.1897 13.062 20.2479 12.6505C20.4496 11.2256 20.324 9.03862 18.5813 6.71175L17.85 5.73544L17.3708 6.8572C16.8181 8.15114 15.9239 8.80031 15.0927 8.51095C14.4529 8.2883 13.9328 7.55602 13.666 6.50175C13.4171 5.51841 13.2725 3.78802 13.9972 1.12852L14.3047 0L13.1636 0.257062C9.31444 1.12416 6.72071 3.85763 5.66265 8.16187C5.2179 9.9712 5.13413 11.6854 5.1466 12.8448C4.23713 12.1095 3.78296 11.4644 3.77105 11.4473L2.90476 10.1745L2.51016 11.6648C2.29327 12.4839 2.18335 13.3313 2.18335 14.1833C2.18335 19.5558 6.52163 23.9333 11.8789 23.9985C11.9192 23.9995 11.9596 24 12.0001 24C12.0406 24 12.0809 23.9995 12.1212 23.9985C17.4785 23.9333 21.8168 19.5558 21.8168 14.1833C21.8168 14.0036 21.8114 13.8167 21.8008 13.628ZM16.1574 21.4906C14.6935 22.2957 13.6709 22.4999 12.0002 22.5C10.3296 22.5001 9.30753 22.295 7.84308 21.491C4.94875 19.9021 3.59096 17.3091 3.59096 14.1833C3.59096 13.9167 3.60352 13.6507 3.62846 13.3862C4.10307 13.8359 4.74647 14.3596 5.56561 14.8456L6.78844 15.5707L6.62358 14.1584C6.6204 14.1309 6.31215 11.3843 7.03838 8.46211C7.86877 5.12044 9.65443 2.93714 12.3542 1.95609C11.9777 3.81525 11.9578 5.48841 12.3017 6.84713C12.6868 8.36831 13.5355 9.45928 14.6304 9.84019C15.3915 10.105 16.2117 10.0065 16.9403 9.56306C17.3597 9.30778 17.7391 8.94445 18.0653 8.48958C18.7698 9.74775 19.0379 11.0565 18.8628 12.3922C18.6972 13.6557 18.1772 14.4812 18.1737 14.4867L17.5717 15.4103L18.6629 15.5675C19.2122 15.6466 19.7859 15.5258 20.3463 15.2166C20.0153 17.9044 18.7389 20.0709 16.1574 21.4906Z" fill="#737697"/>
</g>
<defs>
<clipPath id="clip0_1069_3013">
<rect width="24" height="24" fill="white"/>
</clipPath>
</defs>
</svg>
